<svg xmlns="http://www.w3.org/2000/svg" width="150" height="150" viewBox="0 0 150 150">
  <g id="Grupo_1848" data-name="Grupo 1848" transform="translate(-906 -179)">
    <g id="Grupo_1847" data-name="Grupo 1847" transform="translate(906 179)">
      <circle id="Elipse_12" data-name="Elipse 12" cx="75" cy="75" r="75" fill="#f8fafc"/>
    </g>
    <path id="Icon_awesome-money-check-alt" data-name="Icon awesome-money-check-alt" d="M84.229,2.25H4.433A4.434,4.434,0,0,0,0,6.683v53.2a4.434,4.434,0,0,0,4.433,4.433h79.8a4.434,4.434,0,0,0,4.433-4.433V6.683A4.434,4.434,0,0,0,84.229,2.25ZM24.382,43.24v2.233a1.108,1.108,0,0,1-1.108,1.108H21.057a1.108,1.108,0,0,1-1.108-1.108V43.216A7.932,7.932,0,0,1,15.6,41.644a1.11,1.11,0,0,1-.079-1.682l1.628-1.553a1.137,1.137,0,0,1,1.4-.1,3.335,3.335,0,0,0,1.776.515h3.894A1.742,1.742,0,0,0,25.86,37a1.808,1.808,0,0,0-1.215-1.764l-6.234-1.87a6.27,6.27,0,0,1-4.375-6.011,6.169,6.169,0,0,1,5.911-6.244V18.874a1.108,1.108,0,0,1,1.108-1.108h2.217a1.108,1.108,0,0,1,1.108,1.108v2.257A7.922,7.922,0,0,1,28.727,22.7a1.11,1.11,0,0,1,.079,1.682l-1.628,1.553a1.137,1.137,0,0,1-1.4.1A3.323,3.323,0,0,0,24,25.524H20.1a1.742,1.742,0,0,0-1.635,1.827,1.808,1.808,0,0,0,1.215,1.764l6.234,1.87A6.27,6.27,0,0,1,30.293,37,6.168,6.168,0,0,1,24.382,43.24Zm33.248-2.2a1.108,1.108,0,0,1-1.108,1.108H41.006A1.108,1.108,0,0,1,39.9,41.04V38.823a1.108,1.108,0,0,1,1.108-1.108H56.522a1.108,1.108,0,0,1,1.108,1.108Zm22.166,0a1.108,1.108,0,0,1-1.108,1.108H67.6A1.108,1.108,0,0,1,66.5,41.04V38.823A1.108,1.108,0,0,1,67.6,37.715H78.688A1.108,1.108,0,0,1,79.8,38.823Zm0-13.3a1.108,1.108,0,0,1-1.108,1.108H41.006A1.108,1.108,0,0,1,39.9,27.74V25.524a1.108,1.108,0,0,1,1.108-1.108H78.688A1.108,1.108,0,0,1,79.8,25.524Z" transform="translate(937.524 220.096)" fill="#29c229"/>
  </g>
</svg>
